<mxfile host="Electron" modified="2024-05-11T09:04:41.558Z" agent="Mozilla/5.0 (Windows NT 10.0; Win64; x64) AppleWebKit/537.36 (KHTML, like Gecko) draw.io/24.2.5 Chrome/120.0.6099.109 Electron/28.1.0 Safari/537.36" etag="2woCAfz0h_KZkBARQHWA" version="24.2.5" type="device">
  <diagram name="Pagina-1" id="3LlL-EZofzvY2U9UZ7qj">
    <mxGraphModel dx="1463" dy="376" grid="1" gridSize="10" guides="1" tooltips="1" connect="1" arrows="1" fold="1" page="1" pageScale="1" pageWidth="827" pageHeight="1169" math="0" shadow="0">
      <root>
        <mxCell id="0" />
        <mxCell id="1" parent="0" />
        <mxCell id="JnqpyTDDslyUh6_QqNwL-1" style="edgeStyle=orthogonalEdgeStyle;rounded=0;orthogonalLoop=1;jettySize=auto;html=1;exitX=0.25;exitY=0;exitDx=0;exitDy=0;entryX=0.5;entryY=1;entryDx=0;entryDy=0;endArrow=oval;endFill=0;" edge="1" parent="1" source="JnqpyTDDslyUh6_QqNwL-19">
          <mxGeometry relative="1" as="geometry">
            <mxPoint x="37.26000000000032" y="235.6" as="targetPoint" />
          </mxGeometry>
        </mxCell>
        <mxCell id="JnqpyTDDslyUh6_QqNwL-2" style="edgeStyle=orthogonalEdgeStyle;rounded=0;orthogonalLoop=1;jettySize=auto;html=1;exitX=1;exitY=0;exitDx=0;exitDy=0;entryX=0.25;entryY=1;entryDx=0;entryDy=0;endArrow=oval;endFill=0;" edge="1" parent="1" source="JnqpyTDDslyUh6_QqNwL-19">
          <mxGeometry relative="1" as="geometry">
            <mxPoint x="74.76000000000032" y="235.6" as="targetPoint" />
          </mxGeometry>
        </mxCell>
        <mxCell id="JnqpyTDDslyUh6_QqNwL-3" value="&lt;font style=&quot;font-size: 8px;&quot;&gt;Periodo storico&lt;/font&gt;" style="text;html=1;align=center;verticalAlign=middle;whiteSpace=wrap;rounded=0;" vertex="1" parent="1">
          <mxGeometry x="43.68999999999998" y="209.71" width="70" height="30" as="geometry" />
        </mxCell>
        <mxCell id="JnqpyTDDslyUh6_QqNwL-4" value="&lt;font style=&quot;font-size: 8px;&quot;&gt;Nome&lt;/font&gt;" style="text;html=1;align=center;verticalAlign=middle;whiteSpace=wrap;rounded=0;" vertex="1" parent="1">
          <mxGeometry x="6.189999999999987" y="209.70999999999998" width="60" height="30" as="geometry" />
        </mxCell>
        <mxCell id="JnqpyTDDslyUh6_QqNwL-5" value="" style="curved=1;endArrow=oval;html=1;rounded=0;entryX=0.642;entryY=0.924;entryDx=0;entryDy=0;entryPerimeter=0;endFill=1;" edge="1" parent="1">
          <mxGeometry width="50" height="50" relative="1" as="geometry">
            <mxPoint x="-2.560000000000013" y="247.89" as="sourcePoint" />
            <mxPoint x="102.38000000000015" y="235.61" as="targetPoint" />
            <Array as="points">
              <mxPoint x="47.43999999999998" y="247.89" />
              <mxPoint x="97.43999999999998" y="247.89" />
            </Array>
          </mxGeometry>
        </mxCell>
        <mxCell id="JnqpyTDDslyUh6_QqNwL-8" value="&lt;font style=&quot;font-size: 8px;&quot;&gt;(1,N)&lt;/font&gt;" style="text;html=1;align=center;verticalAlign=middle;whiteSpace=wrap;rounded=1;strokeColor=none;glass=0;" vertex="1" parent="1">
          <mxGeometry x="-17.37000000000002" y="289.20000000000005" width="50" height="15" as="geometry" />
        </mxCell>
        <mxCell id="JnqpyTDDslyUh6_QqNwL-9" value="&lt;p style=&quot;line-height: 70%;&quot;&gt;&lt;font style=&quot;font-size: 9px;&quot;&gt;Area Geografica&lt;/font&gt;&lt;/p&gt;" style="text;html=1;align=center;verticalAlign=middle;whiteSpace=wrap;rounded=0;" vertex="1" parent="1">
          <mxGeometry x="-27.74000000000002" y="300" width="60" height="30" as="geometry" />
        </mxCell>
        <mxCell id="JnqpyTDDslyUh6_QqNwL-10" style="edgeStyle=orthogonalEdgeStyle;rounded=0;orthogonalLoop=1;jettySize=auto;html=1;exitX=0.25;exitY=1;exitDx=0;exitDy=0;endArrow=oval;endFill=0;" edge="1" parent="1">
          <mxGeometry relative="1" as="geometry">
            <mxPoint x="19.209999999999997" y="283.1" as="sourcePoint" />
            <mxPoint x="20.3" y="308.6" as="targetPoint" />
          </mxGeometry>
        </mxCell>
        <mxCell id="JnqpyTDDslyUh6_QqNwL-13" value="" style="endArrow=oval;html=1;rounded=0;endFill=0;exitX=0;exitY=0.75;exitDx=0;exitDy=0;entryX=0.677;entryY=0.006;entryDx=0;entryDy=0;entryPerimeter=0;" edge="1" parent="1" target="JnqpyTDDslyUh6_QqNwL-14">
          <mxGeometry width="50" height="50" relative="1" as="geometry">
            <mxPoint x="16.129999999999942" y="274.71000000000004" as="sourcePoint" />
            <mxPoint x="-0.06" y="275.11" as="targetPoint" />
            <Array as="points" />
          </mxGeometry>
        </mxCell>
        <mxCell id="JnqpyTDDslyUh6_QqNwL-14" value="&lt;font style=&quot;font-size: 8px;&quot;&gt;Descrizione&lt;/font&gt;" style="text;html=1;align=center;verticalAlign=middle;whiteSpace=wrap;rounded=0;" vertex="1" parent="1">
          <mxGeometry x="-27.740000000000006" y="274.71" width="41.24" height="14.37" as="geometry" />
        </mxCell>
        <mxCell id="JnqpyTDDslyUh6_QqNwL-15" style="edgeStyle=orthogonalEdgeStyle;rounded=0;orthogonalLoop=1;jettySize=auto;html=1;exitX=0.25;exitY=1;exitDx=0;exitDy=0;endArrow=oval;endFill=0;" edge="1" parent="1">
          <mxGeometry relative="1" as="geometry">
            <mxPoint x="65.03000000000003" y="270.62" as="sourcePoint" />
            <mxPoint x="66.12" y="296.12" as="targetPoint" />
          </mxGeometry>
        </mxCell>
        <mxCell id="JnqpyTDDslyUh6_QqNwL-16" style="edgeStyle=orthogonalEdgeStyle;rounded=0;orthogonalLoop=1;jettySize=auto;html=1;exitX=1;exitY=0.75;exitDx=0;exitDy=0;endArrow=oval;endFill=0;" edge="1" parent="1" source="JnqpyTDDslyUh6_QqNwL-19">
          <mxGeometry relative="1" as="geometry">
            <mxPoint x="94.61000000000003" y="283.12" as="sourcePoint" />
            <mxPoint x="95.7" y="308.62" as="targetPoint" />
          </mxGeometry>
        </mxCell>
        <mxCell id="JnqpyTDDslyUh6_QqNwL-17" value="&lt;font style=&quot;font-size: 8px;&quot;&gt;Lingua&lt;/font&gt;" style="text;html=1;align=center;verticalAlign=middle;whiteSpace=wrap;rounded=0;" vertex="1" parent="1">
          <mxGeometry x="91.32999999999998" y="310.12" width="13.49" height="9.75" as="geometry" />
        </mxCell>
        <mxCell id="JnqpyTDDslyUh6_QqNwL-18" value="&lt;font style=&quot;font-size: 8px;&quot;&gt;Religione&lt;/font&gt;" style="text;html=1;align=center;verticalAlign=middle;whiteSpace=wrap;rounded=0;" vertex="1" parent="1">
          <mxGeometry x="60.15999999999999" y="296.12" width="12" height="14" as="geometry" />
        </mxCell>
        <mxCell id="JnqpyTDDslyUh6_QqNwL-21" style="edgeStyle=orthogonalEdgeStyle;rounded=0;orthogonalLoop=1;jettySize=auto;html=1;exitX=1;exitY=0.5;exitDx=0;exitDy=0;entryX=0;entryY=0.5;entryDx=0;entryDy=0;endArrow=none;endFill=0;" edge="1" parent="1" source="JnqpyTDDslyUh6_QqNwL-19" target="JnqpyTDDslyUh6_QqNwL-20">
          <mxGeometry relative="1" as="geometry" />
        </mxCell>
        <mxCell id="JnqpyTDDslyUh6_QqNwL-19" value="CiviltÃ " style="whiteSpace=wrap;html=1;align=center;" vertex="1" parent="1">
          <mxGeometry x="16.18999999999998" y="253.10000000000002" width="70" height="30" as="geometry" />
        </mxCell>
        <mxCell id="JnqpyTDDslyUh6_QqNwL-36" style="edgeStyle=orthogonalEdgeStyle;rounded=0;orthogonalLoop=1;jettySize=auto;html=1;exitX=1;exitY=0.5;exitDx=0;exitDy=0;entryX=0;entryY=0.5;entryDx=0;entryDy=0;endArrow=none;endFill=0;" edge="1" parent="1" source="JnqpyTDDslyUh6_QqNwL-20" target="JnqpyTDDslyUh6_QqNwL-23">
          <mxGeometry relative="1" as="geometry" />
        </mxCell>
        <mxCell id="JnqpyTDDslyUh6_QqNwL-20" value="Appartenenza" style="shape=rhombus;perimeter=rhombusPerimeter;whiteSpace=wrap;html=1;align=center;" vertex="1" parent="1">
          <mxGeometry x="160" y="242.6" width="92.5" height="51" as="geometry" />
        </mxCell>
        <mxCell id="JnqpyTDDslyUh6_QqNwL-35" style="edgeStyle=orthogonalEdgeStyle;rounded=0;orthogonalLoop=1;jettySize=auto;html=1;exitX=0.75;exitY=0;exitDx=0;exitDy=0;entryX=0.5;entryY=1;entryDx=0;entryDy=0;endArrow=oval;endFill=0;" edge="1" parent="1" source="JnqpyTDDslyUh6_QqNwL-23" target="JnqpyTDDslyUh6_QqNwL-26">
          <mxGeometry relative="1" as="geometry" />
        </mxCell>
        <mxCell id="JnqpyTDDslyUh6_QqNwL-23" value="Abbigliamento" style="whiteSpace=wrap;html=1;align=center;" vertex="1" parent="1">
          <mxGeometry x="342.5" y="253.86999999999998" width="85" height="30" as="geometry" />
        </mxCell>
        <mxCell id="JnqpyTDDslyUh6_QqNwL-24" value="&lt;font style=&quot;font-size: 9px;&quot;&gt;Nome&lt;/font&gt;" style="text;html=1;align=center;verticalAlign=middle;whiteSpace=wrap;rounded=0;" vertex="1" parent="1">
          <mxGeometry x="280" y="251.86999999999998" width="35" height="15" as="geometry" />
        </mxCell>
        <mxCell id="JnqpyTDDslyUh6_QqNwL-25" value="" style="curved=1;endArrow=oval;html=1;rounded=0;endFill=1;" edge="1" parent="1">
          <mxGeometry width="50" height="50" relative="1" as="geometry">
            <mxPoint x="315" y="283.87" as="sourcePoint" />
            <mxPoint x="332.5" y="240" as="targetPoint" />
            <Array as="points">
              <mxPoint x="298" y="283.87" />
              <mxPoint x="335" y="283.87" />
            </Array>
          </mxGeometry>
        </mxCell>
        <mxCell id="JnqpyTDDslyUh6_QqNwL-26" value="&lt;font style=&quot;font-size: 9px;&quot;&gt;Descrizione&lt;/font&gt;" style="text;html=1;align=center;verticalAlign=middle;whiteSpace=wrap;rounded=0;" vertex="1" parent="1">
          <mxGeometry x="387.5" y="216.21" width="40" height="17" as="geometry" />
        </mxCell>
        <mxCell id="JnqpyTDDslyUh6_QqNwL-27" value="&lt;font style=&quot;font-size: 9px;&quot;&gt;Colore&lt;/font&gt;" style="text;html=1;align=center;verticalAlign=middle;whiteSpace=wrap;rounded=0;" vertex="1" parent="1">
          <mxGeometry x="457.5" y="266.87" width="40" height="17" as="geometry" />
        </mxCell>
        <mxCell id="JnqpyTDDslyUh6_QqNwL-28" style="edgeStyle=orthogonalEdgeStyle;rounded=0;orthogonalLoop=1;jettySize=auto;html=1;exitX=1.011;exitY=0.878;exitDx=0;exitDy=0;endArrow=oval;endFill=0;exitPerimeter=0;" edge="1" parent="1">
          <mxGeometry relative="1" as="geometry">
            <mxPoint x="427.50499999999994" y="277.32000000000005" as="sourcePoint" />
            <mxPoint x="459.07" y="277.23" as="targetPoint" />
            <Array as="points">
              <mxPoint x="439.07" y="277.23" />
              <mxPoint x="439.07" y="277.23" />
            </Array>
          </mxGeometry>
        </mxCell>
        <mxCell id="JnqpyTDDslyUh6_QqNwL-29" value="&lt;font style=&quot;font-size: 9px;&quot;&gt;Materiale&lt;/font&gt;" style="text;html=1;align=center;verticalAlign=middle;whiteSpace=wrap;rounded=0;" vertex="1" parent="1">
          <mxGeometry x="335" y="210.11999999999998" width="40" height="17" as="geometry" />
        </mxCell>
        <mxCell id="JnqpyTDDslyUh6_QqNwL-30" style="edgeStyle=orthogonalEdgeStyle;rounded=0;orthogonalLoop=1;jettySize=auto;html=1;endArrow=oval;endFill=0;" edge="1" parent="1">
          <mxGeometry relative="1" as="geometry">
            <mxPoint x="342.5" y="261.49" as="sourcePoint" />
            <mxPoint x="320.5" y="261.24" as="targetPoint" />
            <Array as="points">
              <mxPoint x="342.5" y="261.49" />
              <mxPoint x="343.5" y="261.49" />
            </Array>
          </mxGeometry>
        </mxCell>
        <mxCell id="JnqpyTDDslyUh6_QqNwL-31" style="edgeStyle=orthogonalEdgeStyle;rounded=0;orthogonalLoop=1;jettySize=auto;html=1;endArrow=oval;endFill=0;" edge="1" parent="1">
          <mxGeometry relative="1" as="geometry">
            <mxPoint x="355" y="253.86999999999998" as="sourcePoint" />
            <mxPoint x="355" y="230.11999999999998" as="targetPoint" />
            <Array as="points">
              <mxPoint x="355" y="253.86999999999998" />
            </Array>
          </mxGeometry>
        </mxCell>
        <mxCell id="JnqpyTDDslyUh6_QqNwL-37" value="&lt;span style=&quot;font-size: 8px;&quot;&gt;(1,N)&lt;/span&gt;" style="text;html=1;align=center;verticalAlign=middle;whiteSpace=wrap;rounded=1;strokeColor=none;glass=0;" vertex="1" parent="1">
          <mxGeometry x="140" y="251.87" width="22.5" height="6.75" as="geometry" />
        </mxCell>
        <mxCell id="JnqpyTDDslyUh6_QqNwL-38" value="&lt;span style=&quot;font-size: 8px;&quot;&gt;(1,1)&lt;/span&gt;" style="text;html=1;align=center;verticalAlign=middle;whiteSpace=wrap;rounded=1;strokeColor=none;glass=0;" vertex="1" parent="1">
          <mxGeometry x="240" y="251.87" width="22.5" height="6.75" as="geometry" />
        </mxCell>
      </root>
    </mxGraphModel>
  </diagram>
</mxfile>
